<svg width="321.901" height="74" viewBox="0 0 321.901 74" xmlns="http://www.w3.org/2000/svg"><g id="svgGroup" stroke-linecap="round" fill-rule="evenodd" font-size="9pt" stroke="#000" stroke-width="1.5mm" fill="#000" style="stroke:#000;stroke-width:1.5mm;fill:#000"><path d="M 37.5 27.2 L 34.8 29.9 A 17.161 17.161 0 0 0 32.086 27.758 A 13.951 13.951 0 0 0 29.7 26.55 Q 27 25.5 23.7 25.5 A 18.757 18.757 0 0 0 17.064 26.652 A 17.385 17.385 0 0 0 13.55 28.45 A 18.91 18.91 0 0 0 7.465 35.101 A 23.154 23.154 0 0 0 6.65 36.7 A 26.343 26.343 0 0 0 4.492 44.29 A 33.841 33.841 0 0 0 4.2 48.8 A 28.898 28.898 0 0 0 4.837 55.049 Q 5.773 59.274 8.083 62.418 A 17.413 17.413 0 0 0 9.35 63.95 Q 14.5 69.5 23.4 69.5 A 25.672 25.672 0 0 0 29.512 68.741 A 29.525 29.525 0 0 0 30.95 68.35 Q 34.8 67.2 39.3 64.7 L 41.2 67.8 Q 37.2 70.4 32.4 71.85 A 33.157 33.157 0 0 1 24.224 73.271 A 30.631 30.631 0 0 1 22.9 73.3 A 28.614 28.614 0 0 1 15.894 72.49 A 19.597 19.597 0 0 1 6.05 66.75 Q 0.507 60.748 0.043 50.423 A 42.83 42.83 0 0 1 0 48.5 A 38.222 38.222 0 0 1 0.627 41.412 A 28.47 28.47 0 0 1 2.9 34.35 A 22.317 22.317 0 0 1 7.926 27.462 A 21.112 21.112 0 0 1 11.2 25 A 22.525 22.525 0 0 1 20.649 21.861 A 28.327 28.327 0 0 1 23.7 21.7 Q 31.7 21.7 37.5 27.2 Z" id="0" vector-effect="non-scaling-stroke"/><path d="M 50.7 57.7 L 50.7 22.7 L 54.9 22.7 L 55 56.6 A 20.503 20.503 0 0 0 55.319 60.333 Q 55.993 63.973 58.1 66.25 A 9.766 9.766 0 0 0 62.418 68.912 Q 63.98 69.407 65.871 69.546 A 20.866 20.866 0 0 0 67.4 69.6 Q 72.9 69.6 76.8 66.85 Q 80.7 64.1 84.7 58.5 L 84.7 22.7 L 88.9 22.7 L 88.9 58.4 Q 88.9 66.1 92.7 70.5 L 90.1 73 A 11.667 11.667 0 0 1 86.644 68.718 A 14.109 14.109 0 0 1 86.3 67.95 A 18.454 18.454 0 0 1 85.367 65.074 A 13.626 13.626 0 0 1 85 62 A 36.603 36.603 0 0 1 82.452 65.81 Q 81.042 67.64 79.558 68.976 A 16.266 16.266 0 0 1 77.05 70.85 A 17.814 17.814 0 0 1 70.233 73.193 A 22.98 22.98 0 0 1 67.1 73.4 A 24.742 24.742 0 0 1 60.71 72.649 Q 50.7 69.966 50.7 57.7 Z" id="1" vector-effect="non-scaling-stroke"/><path d="M 106.1 71.7 L 106.1 0 L 110.3 0 L 110.3 31.9 A 17.178 17.178 0 0 1 113.204 27.512 A 14.832 14.832 0 0 1 116.9 24.6 A 19.112 19.112 0 0 1 125.513 22.221 A 22.809 22.809 0 0 1 126.5 22.2 A 20.945 20.945 0 0 1 132.572 23.051 A 17.864 17.864 0 0 1 137.5 25.4 A 19.716 19.716 0 0 1 143.532 32.017 A 24.891 24.891 0 0 1 144.75 34.45 Q 147.3 40.3 147.3 47.9 A 35.108 35.108 0 0 1 146.414 56.005 A 24.726 24.726 0 0 1 141.25 66.45 A 18.792 18.792 0 0 1 132.585 72.132 Q 128.146 73.6 122.3 73.6 Q 117.3 73.6 112.5 73 A 83.025 83.025 0 0 1 109.985 72.576 Q 107.741 72.159 106.1 71.7 Z M 110.3 39.8 L 110.3 68.7 L 116.3 69.5 A 17.173 17.173 0 0 0 117.382 69.631 Q 118.625 69.747 120.42 69.783 A 87.867 87.867 0 0 0 122.2 69.8 A 30.973 30.973 0 0 0 128.127 69.272 Q 131.44 68.625 133.973 67.186 A 14.506 14.506 0 0 0 138.15 63.65 A 21.925 21.925 0 0 0 142.542 54.005 A 30.808 30.808 0 0 0 143.1 48 A 35.5 35.5 0 0 0 142.7 42.525 Q 142.151 39.012 140.85 36.15 A 20.428 20.428 0 0 0 138.401 32.041 A 15.862 15.862 0 0 0 134.75 28.6 Q 130.9 26 126.2 26 A 15.174 15.174 0 0 0 121.777 26.676 A 17.535 17.535 0 0 0 120.95 26.95 Q 118.3 27.9 116.1 29.5 A 14.495 14.495 0 0 0 112.139 33.785 A 13.744 13.744 0 0 0 110.3 39.8 Z" id="2" vector-effect="non-scaling-stroke"/><path d="M 195.4 65.1 L 197.3 68.2 Q 193.4 70.8 188.7 72.25 Q 184 73.7 179 73.7 A 26.283 26.283 0 0 1 172.263 72.884 A 18.434 18.434 0 0 1 162.85 67.1 Q 157.1 60.5 157.1 49.4 A 39.534 39.534 0 0 1 157.818 41.705 A 31.17 31.17 0 0 1 159.8 35.3 A 24.529 24.529 0 0 1 163.244 29.563 A 20.594 20.594 0 0 1 167.45 25.65 Q 172.4 22.2 179.1 22.2 Q 184.9 22.2 189.45 24.85 Q 194 27.5 196.55 32.15 A 20.713 20.713 0 0 1 198.931 39.796 A 25.99 25.99 0 0 1 199.1 42.8 A 27.243 27.243 0 0 1 199.076 43.856 Q 199.019 45.292 198.829 47.662 A 231.286 231.286 0 0 1 198.7 49.2 L 161.3 49.2 Q 161.3 56.6 164.95 63.25 Q 168.032 68.864 176.351 69.739 A 31.113 31.113 0 0 0 179.6 69.9 A 25.948 25.948 0 0 0 185.462 69.255 A 23.254 23.254 0 0 0 187.3 68.75 A 34.775 34.775 0 0 0 190.498 67.539 Q 192.799 66.545 195.4 65.1 Z M 161.5 45.4 L 194.7 45.4 A 10.639 10.639 0 0 0 194.818 44.532 Q 194.9 43.689 194.9 42.6 A 18.42 18.42 0 0 0 194.082 37.037 A 16.447 16.447 0 0 0 192.75 33.95 Q 190.6 30.1 187 27.95 Q 183.4 25.8 179.1 25.8 A 15.201 15.201 0 0 0 167.865 30.546 A 19.582 19.582 0 0 0 167.25 31.2 A 21.713 21.713 0 0 0 162.731 39.278 A 30.574 30.574 0 0 0 161.5 45.4 Z" id="3" vector-effect="non-scaling-stroke"/><path d="M 236.8 22.9 L 236.8 26.7 A 40.889 40.889 0 0 0 234.738 26.395 Q 233.113 26.2 231.8 26.2 A 18.909 18.909 0 0 0 227.911 26.578 Q 225.402 27.105 223.471 28.369 A 11.315 11.315 0 0 0 222.6 29 Q 221.1 30.3 219.4 32.35 Q 217.7 34.4 216.5 36.7 L 216.5 72.6 L 212.3 72.6 L 212.3 36.5 Q 212.3 32.2 211.441 29.667 A 10.174 10.174 0 0 0 211.4 29.55 A 16.244 16.244 0 0 0 209.69 26.115 A 19.831 19.831 0 0 0 208.6 24.6 L 211.4 21.9 Q 213.6 24 214.95 26.65 Q 216.3 29.3 216.5 32.2 Q 217.8 29.6 219.6 27.5 A 19.738 19.738 0 0 1 221.119 25.906 Q 221.932 25.148 222.745 24.594 A 10.938 10.938 0 0 1 223.2 24.3 A 13.562 13.562 0 0 1 227.532 22.602 Q 229.413 22.2 231.6 22.2 Q 232.749 22.2 235.514 22.671 A 98.403 98.403 0 0 1 236.8 22.9 Z" id="4" vector-effect="non-scaling-stroke"/><path d="M 246.3 58.7 L 246.3 10.4 L 250.5 10.4 L 250.5 23.2 L 266.6 23.2 L 266.6 27.2 L 250.5 27.2 L 250.5 58.7 Q 250.5 65.1 253.35 67.65 Q 256.2 70.2 259.9 70.2 A 13.337 13.337 0 0 0 264.385 69.458 A 12.378 12.378 0 0 0 266.1 68.7 L 268.2 72.2 Q 265.98 73.532 262.554 73.879 A 25.441 25.441 0 0 1 260 74 A 20.767 20.767 0 0 1 256.166 73.669 Q 252.006 72.887 249.65 70.25 Q 247.179 67.483 246.531 62.512 A 29.555 29.555 0 0 1 246.3 58.7 Z" id="5" vector-effect="non-scaling-stroke"/><path d="M 290.522 72.697 A 26.766 26.766 0 0 0 297.6 73.6 Q 304.8 73.6 310.3 70.4 Q 315.8 67.2 318.85 61.35 Q 321.9 55.5 321.9 48 A 34.177 34.177 0 0 0 321.603 43.421 A 26.786 26.786 0 0 0 318.85 34.55 Q 315.8 28.7 310.3 25.45 Q 304.8 22.2 297.7 22.2 A 28.753 28.753 0 0 0 295.094 22.316 A 23.248 23.248 0 0 0 285.1 25.5 Q 279.6 28.8 276.55 34.65 Q 273.5 40.5 273.5 48.1 A 33.508 33.508 0 0 0 273.769 52.403 A 26.455 26.455 0 0 0 276.55 61.4 Q 279.6 67.2 285.05 70.4 A 22.426 22.426 0 0 0 290.522 72.697 Z M 297.7 69.8 Q 303.6 69.8 308.15 67 A 18.718 18.718 0 0 0 315.122 59.307 A 22.293 22.293 0 0 0 315.2 59.15 A 23.977 23.977 0 0 0 317.45 51.568 A 30.552 30.552 0 0 0 317.7 47.6 Q 317.7 41.2 315.2 36.3 Q 312.7 31.4 308.15 28.7 A 19.311 19.311 0 0 0 300.217 26.129 A 24.005 24.005 0 0 0 297.7 26 Q 291.8 26 287.25 28.75 A 18.481 18.481 0 0 0 280.21 36.48 A 22.577 22.577 0 0 0 280.2 36.5 A 23.459 23.459 0 0 0 277.996 43.708 A 30.177 30.177 0 0 0 277.7 48 A 27.896 27.896 0 0 0 278.365 54.214 A 22.382 22.382 0 0 0 280.2 59.35 Q 282.7 64.3 287.25 67.05 A 19.146 19.146 0 0 0 295.491 69.699 A 23.774 23.774 0 0 0 297.7 69.8 Z" id="6" vector-effect="non-scaling-stroke"/></g></svg>